<?xml version="1.0" encoding="UTF-8" standalone="no"?>
<!DOCTYPE svg PUBLIC "-//W3C//DTD SVG 1.1//EN"
 "http://www.w3.org/Graphics/SVG/1.1/DTD/svg11.dtd">
<!-- Generated by graphviz version 2.43.0 (0)
 -->
<!-- Title: flowchart Pages: 1 -->
<svg width="582pt" height="404pt"
 viewBox="0.00 0.00 581.94 403.80" xmlns="http://www.w3.org/2000/svg" xmlns:xlink="http://www.w3.org/1999/xlink">
<g id="graph0" class="graph" transform="scale(1 1) rotate(0) translate(4 399.8)">
<title>flowchart</title>
<polygon fill="white" stroke="transparent" points="-4,4 -4,-399.8 577.94,-399.8 577.94,4 -4,4"/>
<!-- v0 -->
<g id="node1" class="node">
<title>v0</title>
<ellipse fill="black" stroke="black" cx="116.94" cy="-392.2" rx="3.6" ry="3.6"/>
</g>
<!-- v2 -->
<g id="node2" class="node">
<title>v2</title>
<ellipse fill="none" stroke="black" cx="176.94" cy="-319.6" rx="58.49" ry="18"/>
<text text-anchor="middle" x="176.94" y="-315.9" font-family="Times,serif" font-size="14.00">PY_DERIVE</text>
</g>
<!-- v0&#45;&gt;v2 -->
<g id="edge1" class="edge">
<title>v0&#45;&gt;v2</title>
<path fill="none" stroke="black" d="M116.17,-388.36C114.59,-381.99 111.67,-366.26 117.94,-355.6 121.68,-349.25 127.06,-343.92 133.06,-339.5"/>
<polygon fill="black" stroke="black" points="135.05,-342.38 141.55,-334.01 131.25,-336.5 135.05,-342.38"/>
<text text-anchor="middle" x="166.94" y="-359.4" font-family="Times,serif" font-size="14.00">example_data.csv</text>
</g>
<!-- v4 -->
<g id="node4" class="node">
<title>v4</title>
<ellipse fill="none" stroke="black" cx="66.94" cy="-232.6" rx="66.89" ry="18"/>
<text text-anchor="middle" x="66.94" y="-228.9" font-family="Times,serif" font-size="14.00">R_SUMMARY</text>
</g>
<!-- v2&#45;&gt;v4 -->
<g id="edge3" class="edge">
<title>v2&#45;&gt;v4</title>
<path fill="none" stroke="black" d="M166.61,-301.7C159.53,-291.18 149.39,-277.91 137.94,-268.6 130.35,-262.42 121.48,-256.97 112.64,-252.32"/>
<polygon fill="black" stroke="black" points="114,-249.09 103.49,-247.77 110.88,-255.35 114,-249.09"/>
</g>
<!-- v6 -->
<g id="node6" class="node">
<title>v6</title>
<ellipse fill="none" stroke="black" cx="240.94" cy="-145.6" rx="87.18" ry="18"/>
<text text-anchor="middle" x="240.94" y="-141.9" font-family="Times,serif" font-size="14.00">POLARS_PROCESS</text>
</g>
<!-- v2&#45;&gt;v6 -->
<g id="edge6" class="edge">
<title>v2&#45;&gt;v6</title>
<path fill="none" stroke="black" d="M175.43,-301.32C174.23,-280.09 174.36,-243.34 185.94,-214.6 192.51,-198.31 204.37,-182.86 215.4,-170.82"/>
<polygon fill="black" stroke="black" points="218.09,-173.07 222.47,-163.42 213.03,-168.23 218.09,-173.07"/>
<text text-anchor="middle" x="223.94" y="-228.9" font-family="Times,serif" font-size="14.00">1_derived.csv</text>
</g>
<!-- v9 -->
<g id="node8" class="node">
<title>v9</title>
<ellipse fill="none" stroke="black" cx="365.94" cy="-58.6" rx="74.19" ry="18"/>
<text text-anchor="middle" x="365.94" y="-54.9" font-family="Times,serif" font-size="14.00">FINAL_REPORT</text>
</g>
<!-- v2&#45;&gt;v9 -->
<g id="edge11" class="edge">
<title>v2&#45;&gt;v9</title>
<path fill="none" stroke="black" d="M211.25,-304.86C251.31,-286.75 315.68,-250.7 343.94,-196.6 362.14,-161.76 366.08,-115.68 366.54,-86.84"/>
<polygon fill="black" stroke="black" points="370.04,-86.7 366.57,-76.69 363.04,-86.68 370.04,-86.7"/>
<text text-anchor="middle" x="387.94" y="-185.4" font-family="Times,serif" font-size="14.00">1_derived.csv</text>
</g>
<!-- v1 -->
<g id="node3" class="node">
<title>v1</title>
<ellipse fill="black" stroke="black" cx="237.94" cy="-392.2" rx="3.6" ry="3.6"/>
</g>
<!-- v1&#45;&gt;v2 -->
<g id="edge2" class="edge">
<title>v1&#45;&gt;v2</title>
<path fill="none" stroke="black" d="M236.77,-388.8C233.78,-382.83 225.45,-366.97 215.94,-355.6 212.53,-351.52 208.64,-347.47 204.67,-343.66"/>
<polygon fill="black" stroke="black" points="206.78,-340.85 197.04,-336.67 202.05,-346.01 206.78,-340.85"/>
<text text-anchor="middle" x="258.44" y="-359.4" font-family="Times,serif" font-size="14.00">1_derive.py</text>
</g>
<!-- v4&#45;&gt;v6 -->
<g id="edge5" class="edge">
<title>v4&#45;&gt;v6</title>
<path fill="none" stroke="black" d="M95.29,-216.28C114.29,-206.15 139.94,-192.74 162.94,-181.6 173.48,-176.5 184.93,-171.21 195.73,-166.35"/>
<polygon fill="black" stroke="black" points="197.32,-169.47 205.02,-162.2 194.46,-163.08 197.32,-169.47"/>
</g>
<!-- v4&#45;&gt;v9 -->
<g id="edge12" class="edge">
<title>v4&#45;&gt;v9</title>
<path fill="none" stroke="black" d="M59.82,-214.37C51.77,-191.82 42.17,-152.29 61.94,-127.6 89.63,-93.04 206.27,-74.87 286.75,-66.26"/>
<polygon fill="black" stroke="black" points="287.28,-69.73 296.86,-65.21 286.56,-62.76 287.28,-69.73"/>
<text text-anchor="middle" x="103.44" y="-141.9" font-family="Times,serif" font-size="14.00">2_summary.txt</text>
</g>
<!-- v3 -->
<g id="node5" class="node">
<title>v3</title>
<ellipse fill="black" stroke="black" cx="58.94" cy="-319.6" rx="3.6" ry="3.6"/>
</g>
<!-- v3&#45;&gt;v4 -->
<g id="edge4" class="edge">
<title>v3&#45;&gt;v4</title>
<path fill="none" stroke="black" d="M58.83,-315.88C58.55,-308.34 57.98,-286.55 59.94,-268.6 60.23,-266.01 60.6,-263.33 61.04,-260.66"/>
<polygon fill="black" stroke="black" points="64.52,-261.07 62.92,-250.6 57.64,-259.78 64.52,-261.07"/>
<text text-anchor="middle" x="98.94" y="-272.4" font-family="Times,serif" font-size="14.00">2_summary.R</text>
</g>
<!-- v6&#45;&gt;v9 -->
<g id="edge8" class="edge">
<title>v6&#45;&gt;v9</title>
<path fill="none" stroke="black" d="M265.05,-128.21C284.5,-114.98 312.06,-96.24 333.46,-81.69"/>
<polygon fill="black" stroke="black" points="335.62,-84.46 341.92,-75.94 331.68,-78.67 335.62,-84.46"/>
</g>
<!-- v5 -->
<g id="node7" class="node">
<title>v5</title>
<ellipse fill="black" stroke="black" cx="274.94" cy="-232.6" rx="3.6" ry="3.6"/>
</g>
<!-- v5&#45;&gt;v6 -->
<g id="edge7" class="edge">
<title>v5&#45;&gt;v6</title>
<path fill="none" stroke="black" d="M272.92,-229.52C269.67,-226.22 263.04,-219.64 256.94,-214.6 246.39,-205.88 238.19,-208.79 231.94,-196.6 228.31,-189.5 228.36,-181.19 229.95,-173.39"/>
<polygon fill="black" stroke="black" points="233.37,-174.17 232.75,-163.6 226.64,-172.25 233.37,-174.17"/>
<text text-anchor="middle" x="287.94" y="-185.4" font-family="Times,serif" font-size="14.00">3_polars_process.py</text>
</g>
<!-- v10 -->
<g id="node11" class="node">
<title>v10</title>
<ellipse fill="black" stroke="black" cx="365.94" cy="-1.8" rx="1.8" ry="1.8"/>
</g>
<!-- v9&#45;&gt;v10 -->
<g id="edge13" class="edge">
<title>v9&#45;&gt;v10</title>
<path fill="none" stroke="black" d="M365.94,-40.56C365.94,-31.87 365.94,-21.56 365.94,-13.9"/>
<polygon fill="black" stroke="black" points="369.44,-13.76 365.94,-3.76 362.44,-13.76 369.44,-13.76"/>
</g>
<!-- v7 -->
<g id="node9" class="node">
<title>v7</title>
<ellipse fill="black" stroke="black" cx="398.94" cy="-145.6" rx="3.6" ry="3.6"/>
</g>
<!-- v7&#45;&gt;v9 -->
<g id="edge9" class="edge">
<title>v7&#45;&gt;v9</title>
<path fill="none" stroke="black" d="M397.85,-141.77C394.52,-133.21 384.3,-106.88 376.31,-86.3"/>
<polygon fill="black" stroke="black" points="379.49,-84.82 372.61,-76.77 372.97,-87.36 379.49,-84.82"/>
<text text-anchor="middle" x="421.44" y="-98.4" font-family="Times,serif" font-size="14.00">4_report.qmd</text>
</g>
<!-- v8 -->
<g id="node10" class="node">
<title>v8</title>
<ellipse fill="black" stroke="black" cx="496.94" cy="-145.6" rx="3.6" ry="3.6"/>
</g>
<!-- v8&#45;&gt;v9 -->
<g id="edge10" class="edge">
<title>v8&#45;&gt;v9</title>
<path fill="none" stroke="black" d="M495.83,-141.89C492.3,-133.58 480.53,-108.24 462.94,-94.6 452.41,-86.42 439.79,-80.04 427.19,-75.1"/>
<polygon fill="black" stroke="black" points="428.19,-71.74 417.59,-71.6 425.79,-78.32 428.19,-71.74"/>
<text text-anchor="middle" x="524.94" y="-98.4" font-family="Times,serif" font-size="14.00">example_data.csv</text>
</g>
</g>
</svg>
