<?xml version="1.0" encoding="utf-8"?>
<!-- Generator: Adobe Illustrator 27.2.0, SVG Export Plug-In . SVG Version: 6.00 Build 0)  -->
<svg version="1.1" id="CRS_Logo" xmlns="http://www.w3.org/2000/svg" xmlns:xlink="http://www.w3.org/1999/xlink" x="0px" y="0px"
	 viewBox="0 0 2303.77 1671.2" style="enable-background:new 0 0 2303.77 1671.2;" xml:space="preserve">
<style type="text/css">
	.st0{fill:#7CA023;}
</style>
<g>
	<path class="st0" d="M1360.64,646.42c-58.46-58.46-136.18-90.65-218.85-90.65s-160.39,32.19-218.85,90.65
		c-58.46,58.46-90.65,136.18-90.65,218.85s32.19,160.39,90.65,218.85s136.18,90.65,218.85,90.65s160.39-32.19,218.85-90.65
		s90.65-136.18,90.65-218.85S1419.1,704.88,1360.64,646.42z M1348.79,658.28c55.29,55.29,85.74,128.8,85.74,206.99
		c0,20.48-2.11,40.63-6.18,60.22H855.25c-4.08-19.59-6.18-39.74-6.18-60.22c0-78.19,30.45-151.7,85.74-206.99
		c55.29-55.29,128.8-85.74,206.99-85.74S1293.5,602.99,1348.79,658.28z M1039.09,1059.46c2.51,3.29,6.15,4.94,10.92,4.94
		c4.77,0,8.45-1.64,11.05-4.94c2.6-3.29,3.9-9.1,3.9-17.42v-47.45h18.46v45.5c0,14.21-2.84,24.57-8.52,31.07
		c-5.68,6.5-13.97,9.75-24.89,9.75c-11.01,0-19.42-3.25-25.22-9.75c-5.81-6.5-8.71-16.86-8.71-31.07v-45.5h19.24v47.45
		C1035.32,1050.36,1036.58,1056.17,1039.09,1059.46z M1114.23,1010.71v-16.12h57.46v11.57l-37.44,57.07h37.83v16.12h-61.36v-11.57
		l37.44-57.07H1114.23z M1247.74,1027.22v-32.63h19.24v84.76h-19.24v-35.36h-29.25v35.36h-19.11v-84.76h19.11v32.63H1247.74z"/>
	<path class="st0" d="M1008,859.29c20.82,0,38.6-8.07,51.95-23.61l-19.17-22.83c-7.87,8.54-18.26,15.04-31.47,15.04
		c-23.52,0-38.9-19.22-38.9-52.29c0-32.26,17.42-51.71,39.48-51.71c11.64,0,20.32,5.28,28.4,12.8l19.17-23.33
		c-10.83-11.09-27.59-20.88-48.38-20.88c-40.65,0-75.94,30.96-75.94,84.33C933.13,831.01,967.2,859.29,1008,859.29z"/>
	<path class="st0" d="M1120.77,798.44h20l30.71,57.9h40.7l-36.4-64.34c17.19-7.76,28.65-22.78,28.65-46.44
		c0-38.25-27.97-50.1-62.09-50.1h-57.94v160.88h36.37V798.44z M1120.77,724.33h18.61c19.13,0,29.41,5.31,29.41,21.22
		c0,15.82-10.28,24.01-29.41,24.01h-18.61V724.33z"/>
	<path class="st0" d="M1290.66,827.89c-13.24,0-28.08-6.85-39.52-16.81l-20.89,24.95c16.41,15.33,38.66,23.26,59.59,23.26
		c38.33,0,60.61-23.15,60.61-49.86c0-22.74-12.27-35.82-31.91-43.76l-20.5-8.3c-14.04-5.59-24.57-9.17-24.57-19.04
		c0-9.2,7.98-14.42,20.52-14.42c12.72,0,22.79,4.47,33.39,12.6l18.36-22.92c-13.85-13.78-33.23-21.08-51.75-21.08
		c-33.49,0-57.3,21.29-57.3,47.95c0,23.38,15.8,37.07,32.47,43.85l20.91,8.91c14.05,5.78,23.2,9.03,23.2,19.16
		C1313.27,821.91,1305.84,827.89,1290.66,827.89z"/>
</g>
</svg>
